# xmcd
# 
# Track frame offsets:
#     150
#     26886
#     57098
#     90971
#     136565
#     167445
#     201772
#     234026
#     267538
#     287356
#     289617
#     319406
# 
# Disc length: 4594
# 
# Revision: 2
# Processed by: cddbd v1.5.2PL0 Copyright (c) Steve Scherf et al.
# Submitted via: fre:ac v1.0.17
# 
DISCID=9a11f00c
DTITLE=Joanne Shaw Taylor - Songs FromThe Road
DYEAR=2013
DGENRE=Blues
TTITLE0=Soul Station
TTITLE1=Tied And Bound
TTITLE2=Beautifully Broken
TTITLE3=Watch 'Em Burn
TTITLE4=Diamonds In The Dirt
TTITLE5=Manic Depression
TTITLE6=Jealousy
TTITLE7=Kiss The Ground Goodbye
TTITLE8=Just Another Word
TTITLE9=Band Introductions
TTITLE10=Jump That Train
TTITLE11=Going Home
EXTD=Year: 2013\n\n\n\n\n\n                                                         http://joanneshawtaylor.com/
EXTT0=
EXTT1=
EXTT2=
EXTT3=
EXTT4=
EXTT5=
EXTT6=
EXTT7=
EXTT8=
EXTT9=
EXTT10=
EXTT11=
PLAYORDER=
